<?xml version="1.0" encoding="UTF-8" standalone="no"?>
<svg
   xmlns:dc="http://purl.org/dc/elements/1.1/"
   xmlns:cc="http://creativecommons.org/ns#"
   xmlns:rdf="http://www.w3.org/1999/02/22-rdf-syntax-ns#"
   xmlns:svg="http://www.w3.org/2000/svg"
   xmlns="http://www.w3.org/2000/svg"
   xmlns:sodipodi="http://sodipodi.sourceforge.net/DTD/sodipodi-0.dtd"
   xmlns:inkscape="http://www.inkscape.org/namespaces/inkscape"
   viewBox="0 0 45 45"
   style="enable-background:new 0 0 45 45;"
   xml:space="preserve"
   version="1.1"
   id="svg2"
   sodipodi:docname="3dsB.svg"
   inkscape:version="0.92.4 (5da689c313, 2019-01-14)"><sodipodi:namedview
     pagecolor="#ffffff"
     bordercolor="#666666"
     borderopacity="1"
     objecttolerance="10"
     gridtolerance="10"
     guidetolerance="10"
     inkscape:pageopacity="0"
     inkscape:pageshadow="2"
     inkscape:window-width="1599"
     inkscape:window-height="837"
     id="namedview4843"
     showgrid="false"
     inkscape:zoom="10.488889"
     inkscape:cx="-4.354381"
     inkscape:cy="27.207001"
     inkscape:window-x="0"
     inkscape:window-y="1"
     inkscape:window-maximized="1"
     inkscape:current-layer="g24" /><metadata
     id="metadata8"><rdf:RDF><cc:Work
         rdf:about=""><dc:format>image/svg+xml</dc:format><dc:type
           rdf:resource="http://purl.org/dc/dcmitype/StillImage" /><dc:title></dc:title></cc:Work></rdf:RDF></metadata><defs
     id="defs6"><clipPath
       id="clipPath16"
       clipPathUnits="userSpaceOnUse"><path
         id="path18"
         d="M 0,36 36,36 36,0 0,0 0,36 Z" /></clipPath></defs><g
     id="g12"
     transform="matrix(1.25,0,0,-1.25,0,45)"><g
       transform="translate(36,4)"
       id="g20"
       style="fill:#333333"><path
         id="path22"
         style="fill:#333333;fill-opacity:1;fill-rule:nonzero;stroke:none"
         d="m 0,0 c 0,-2.209 -1.791,-4 -4,-4 h -28 c -2.209,0 -4,1.791 -4,4 v 28 c 0,2.209 1.791,4 4,4 h 28 c 2.209,0 4,-1.791 4,-4 z"
         inkscape:connector-curvature="0" /></g><g
       transform="translate(15.1489,11.0928)"
       id="g24"><path
         id="path26"
         style="fill:#d0d020;fill-opacity:1;fill-rule:nonzero;stroke:none"
         d="m 0,0 h 3.659 c 1.675,0 2.915,0.961 2.915,2.697 0,1.458 -1.117,2.45 -3.287,2.45 H 0 Z m 0,9.24 h 2.419 c 1.519,0 2.511,0.899 2.511,2.449 0,1.457 -1.147,2.202 -2.511,2.202 H 0 Z m -4.65,6.418 c 0,1.488 1.023,2.325 2.449,2.325 h 5.953 c 3.224,0 5.83,-2.17 5.83,-5.457 0,-2.17 -0.901,-3.628 -2.885,-4.557 V 7.906 C 9.334,7.534 11.41,5.333 11.41,2.636 11.41,-1.736 8.496,-4.093 4.216,-4.093 H -2.17 c -1.427,0 -2.48,0.9 -2.48,2.357 z"
         inkscape:connector-curvature="0" /></g></g></svg>