<?xml version="1.0" encoding="UTF-8" standalone="no"?>
<svg
   xmlns:dc="http://purl.org/dc/elements/1.1/"
   xmlns:cc="http://creativecommons.org/ns#"
   xmlns:rdf="http://www.w3.org/1999/02/22-rdf-syntax-ns#"
   xmlns:svg="http://www.w3.org/2000/svg"
   xmlns="http://www.w3.org/2000/svg"
   xmlns:sodipodi="http://sodipodi.sourceforge.net/DTD/sodipodi-0.dtd"
   xmlns:inkscape="http://www.inkscape.org/namespaces/inkscape"
   viewBox="0 0 45 45"
   style="enable-background:new 0 0 45 45;"
   xml:space="preserve"
   version="1.1"
   id="svg2"
   sodipodi:docname="3dsX.svg"
   inkscape:version="0.92.4 (5da689c313, 2019-01-14)"><sodipodi:namedview
     pagecolor="#ffffff"
     bordercolor="#666666"
     borderopacity="1"
     objecttolerance="10"
     gridtolerance="10"
     guidetolerance="10"
     inkscape:pageopacity="0"
     inkscape:pageshadow="2"
     inkscape:window-width="1599"
     inkscape:window-height="837"
     id="namedview5532"
     showgrid="false"
     inkscape:zoom="10.488889"
     inkscape:cx="-2.1617255"
     inkscape:cy="25.94054"
     inkscape:window-x="0"
     inkscape:window-y="1"
     inkscape:window-maximized="1"
     inkscape:current-layer="g14" /><metadata
     id="metadata8"><rdf:RDF><cc:Work
         rdf:about=""><dc:format>image/svg+xml</dc:format><dc:type
           rdf:resource="http://purl.org/dc/dcmitype/StillImage" /><dc:title></dc:title></cc:Work></rdf:RDF></metadata><defs
     id="defs6"><clipPath
       id="clipPath16"
       clipPathUnits="userSpaceOnUse"><path
         id="path18"
         d="M 0,36 36,36 36,0 0,0 0,36 Z" /></clipPath></defs><g
     id="g12"
     transform="matrix(1.25,0,0,-1.25,0,45)"><g
       id="g14"
       clip-path="url(#clipPath16)"><g
         id="g20"
         transform="translate(36,4)"><path
           inkscape:connector-curvature="0"
           d="m 0,0 c 0,-2.209 -1.791,-4 -4,-4 h -28 c -2.209,0 -4,1.791 -4,4 v 28 c 0,2.209 1.791,4 4,4 h 28 c 2.209,0 4,-1.791 4,-4 z"
           style="fill:#333333;fill-opacity:1;fill-rule:nonzero;stroke:none"
           id="path22" /></g><g
         id="g24"
         transform="translate(15.3042,18.8135)"
         style="fill:#2060a0;fill-opacity:1"><path
           inkscape:connector-curvature="0"
           d="m 0,0 -5.022,6.821 c -0.311,0.403 -0.497,0.868 -0.497,1.365 0,1.364 1.023,2.263 2.357,2.263 0.775,0 1.581,-0.527 2.015,-1.147 L 2.698,3.845 6.542,9.302 c 0.435,0.62 1.241,1.147 2.015,1.147 1.334,0 2.358,-0.899 2.358,-2.263 0,-0.497 -0.186,-0.962 -0.496,-1.365 L 5.395,0 11.534,-8.248 c 0.248,-0.341 0.527,-0.93 0.527,-1.581 0,-1.303 -0.992,-2.17 -2.355,-2.17 -0.838,0 -1.457,0.371 -1.923,1.022 l -5.085,7.07 -5.085,-7.07 c -0.465,-0.651 -1.086,-1.022 -1.923,-1.022 -1.364,0 -2.356,0.867 -2.356,2.17 0,0.651 0.279,1.24 0.527,1.581 z"
           style="fill:#2060a0;fill-opacity:1;fill-rule:nonzero;stroke:none"
           id="path26" /></g></g></g></svg>